<?xml version="1.0" encoding="UTF-8"?>
<!-- Do not edit this file with editors other than draw.io -->
<!DOCTYPE svg PUBLIC "-//W3C//DTD SVG 1.1//EN" "http://www.w3.org/Graphics/SVG/1.1/DTD/svg11.dtd">
<svg xmlns="http://www.w3.org/2000/svg" style="background: #ffffff; background-color: var(--ge-dark-color, #121212); color-scheme: dark;" xmlns:xlink="http://www.w3.org/1999/xlink" version="1.1" width="732px" height="412px" viewBox="-0.5 -0.5 732 412" content="&lt;mxfile host=&quot;app.diagrams.net&quot; agent=&quot;Mozilla/5.0 (Windows NT 10.0; Win64; x64) AppleWebKit/537.36 (KHTML, like Gecko) Chrome/129.0.0.0 Safari/537.36&quot; version=&quot;28.0.9&quot; scale=&quot;1&quot; border=&quot;0&quot;&gt;&#10;  &lt;diagram name=&quot;Page-1&quot; id=&quot;3kdoPEP5d9-nRWnCxk24&quot;&gt;&#10;    &lt;mxGraphModel dx=&quot;1170&quot; dy=&quot;874&quot; grid=&quot;1&quot; gridSize=&quot;10&quot; guides=&quot;1&quot; tooltips=&quot;1&quot; connect=&quot;1&quot; arrows=&quot;1&quot; fold=&quot;1&quot; page=&quot;1&quot; pageScale=&quot;1&quot; pageWidth=&quot;850&quot; pageHeight=&quot;1100&quot; math=&quot;0&quot; shadow=&quot;0&quot;&gt;&#10;      &lt;root&gt;&#10;        &lt;mxCell id=&quot;0&quot; /&gt;&#10;        &lt;mxCell id=&quot;1&quot; parent=&quot;0&quot; /&gt;&#10;        &lt;mxCell id=&quot;xLu8JcWLOyS18Lkk3_GD-30&quot; value=&quot;&quot; style=&quot;rounded=0;whiteSpace=wrap;html=1;fillStyle=solid;fillColor=light-dark(#FFFFFF,#303030);&quot; vertex=&quot;1&quot; parent=&quot;1&quot;&gt;&#10;          &lt;mxGeometry x=&quot;90&quot; y=&quot;220&quot; width=&quot;730&quot; height=&quot;410&quot; as=&quot;geometry&quot; /&gt;&#10;        &lt;/mxCell&gt;&#10;        &lt;mxCell id=&quot;xLu8JcWLOyS18Lkk3_GD-25&quot; value=&quot;&quot; style=&quot;rounded=0;whiteSpace=wrap;html=1;dashed=1;fillColor=default;&quot; vertex=&quot;1&quot; parent=&quot;1&quot;&gt;&#10;          &lt;mxGeometry x=&quot;272.58&quot; y=&quot;400&quot; width=&quot;497.42&quot; height=&quot;180&quot; as=&quot;geometry&quot; /&gt;&#10;        &lt;/mxCell&gt;&#10;        &lt;mxCell id=&quot;xLu8JcWLOyS18Lkk3_GD-16&quot; style=&quot;edgeStyle=orthogonalEdgeStyle;rounded=0;orthogonalLoop=1;jettySize=auto;html=1;startArrow=classic;startFill=1;flowAnimation=1;&quot; edge=&quot;1&quot; parent=&quot;1&quot;&gt;&#10;          &lt;mxGeometry relative=&quot;1&quot; as=&quot;geometry&quot;&gt;&#10;            &lt;mxPoint x=&quot;331.58&quot; y=&quot;488.16&quot; as=&quot;targetPoint&quot; /&gt;&#10;            &lt;mxPoint x=&quot;220&quot; y=&quot;488&quot; as=&quot;sourcePoint&quot; /&gt;&#10;          &lt;/mxGeometry&gt;&#10;        &lt;/mxCell&gt;&#10;        &lt;mxCell id=&quot;xLu8JcWLOyS18Lkk3_GD-1&quot; value=&quot;&quot; style=&quot;outlineConnect=0;dashed=0;verticalLabelPosition=bottom;verticalAlign=top;align=center;html=1;shape=mxgraph.aws3.worker;fillColor=#D9A741;gradientColor=none;&quot; vertex=&quot;1&quot; parent=&quot;1&quot;&gt;&#10;          &lt;mxGeometry x=&quot;155&quot; y=&quot;460&quot; width=&quot;60&quot; height=&quot;63&quot; as=&quot;geometry&quot; /&gt;&#10;        &lt;/mxCell&gt;&#10;        &lt;mxCell id=&quot;xLu8JcWLOyS18Lkk3_GD-17&quot; style=&quot;edgeStyle=orthogonalEdgeStyle;rounded=0;orthogonalLoop=1;jettySize=auto;html=1;startArrow=classic;startFill=1;flowAnimation=1;exitX=1;exitY=0.5;exitDx=0;exitDy=0;exitPerimeter=0;&quot; edge=&quot;1&quot; parent=&quot;1&quot; source=&quot;xLu8JcWLOyS18Lkk3_GD-2&quot;&gt;&#10;          &lt;mxGeometry relative=&quot;1&quot; as=&quot;geometry&quot;&gt;&#10;            &lt;mxPoint x=&quot;490.84&quot; y=&quot;488.16&quot; as=&quot;targetPoint&quot; /&gt;&#10;            &lt;mxPoint x=&quot;409.99999999999966&quot; y=&quot;488.3127586206896&quot; as=&quot;sourcePoint&quot; /&gt;&#10;          &lt;/mxGeometry&gt;&#10;        &lt;/mxCell&gt;&#10;        &lt;mxCell id=&quot;xLu8JcWLOyS18Lkk3_GD-2&quot; value=&quot;&quot; style=&quot;sketch=0;points=[[0,0,0],[0.25,0,0],[0.5,0,0],[0.75,0,0],[1,0,0],[0,1,0],[0.25,1,0],[0.5,1,0],[0.75,1,0],[1,1,0],[0,0.25,0],[0,0.5,0],[0,0.75,0],[1,0.25,0],[1,0.5,0],[1,0.75,0]];outlineConnect=0;fontColor=#232F3E;fillColor=#8C4FFF;strokeColor=#ffffff;dashed=0;verticalLabelPosition=bottom;verticalAlign=top;align=center;html=1;fontSize=12;fontStyle=0;aspect=fixed;shape=mxgraph.aws4.resourceIcon;resIcon=mxgraph.aws4.cloudfront;&quot; vertex=&quot;1&quot; parent=&quot;1&quot;&gt;&#10;          &lt;mxGeometry x=&quot;331.58&quot; y=&quot;458&quot; width=&quot;61&quot; height=&quot;61&quot; as=&quot;geometry&quot; /&gt;&#10;        &lt;/mxCell&gt;&#10;        &lt;mxCell id=&quot;xLu8JcWLOyS18Lkk3_GD-4&quot; value=&quot;&quot; style=&quot;outlineConnect=0;dashed=0;verticalLabelPosition=bottom;verticalAlign=top;align=center;html=1;shape=mxgraph.aws3.ec2;fillColor=#F58534;gradientColor=none;&quot; vertex=&quot;1&quot; parent=&quot;1&quot;&gt;&#10;          &lt;mxGeometry x=&quot;661.58&quot; y=&quot;450&quot; width=&quot;63.34&quot; height=&quot;77&quot; as=&quot;geometry&quot; /&gt;&#10;        &lt;/mxCell&gt;&#10;        &lt;mxCell id=&quot;xLu8JcWLOyS18Lkk3_GD-18&quot; style=&quot;edgeStyle=orthogonalEdgeStyle;rounded=0;orthogonalLoop=1;jettySize=auto;html=1;startArrow=classic;startFill=1;flowAnimation=1;&quot; edge=&quot;1&quot; parent=&quot;1&quot; source=&quot;xLu8JcWLOyS18Lkk3_GD-5&quot;&gt;&#10;          &lt;mxGeometry relative=&quot;1&quot; as=&quot;geometry&quot;&gt;&#10;            &lt;mxPoint x=&quot;655&quot; y=&quot;487.99&quot; as=&quot;targetPoint&quot; /&gt;&#10;            &lt;mxPoint x=&quot;570&quot; y=&quot;488.49&quot; as=&quot;sourcePoint&quot; /&gt;&#10;          &lt;/mxGeometry&gt;&#10;        &lt;/mxCell&gt;&#10;        &lt;mxCell id=&quot;xLu8JcWLOyS18Lkk3_GD-5&quot; value=&quot;&quot; style=&quot;outlineConnect=0;dashed=0;verticalLabelPosition=bottom;verticalAlign=top;align=center;html=1;shape=mxgraph.aws3.elastic_load_balancing;fillColor=#F58534;gradientColor=none;&quot; vertex=&quot;1&quot; parent=&quot;1&quot;&gt;&#10;          &lt;mxGeometry x=&quot;491.58&quot; y=&quot;450&quot; width=&quot;63.34&quot; height=&quot;77&quot; as=&quot;geometry&quot; /&gt;&#10;        &lt;/mxCell&gt;&#10;        &lt;mxCell id=&quot;xLu8JcWLOyS18Lkk3_GD-6&quot; value=&quot;EC2 instance (&amp;lt;span style=&amp;quot;background-color: transparent; color: light-dark(rgb(0, 0, 0), rgb(255, 255, 255));&amp;quot;&amp;gt;Mythic Server)&amp;lt;/span&amp;gt;&quot; style=&quot;text;html=1;align=center;verticalAlign=middle;whiteSpace=wrap;rounded=0;&quot; vertex=&quot;1&quot; parent=&quot;1&quot;&gt;&#10;          &lt;mxGeometry x=&quot;637.37&quot; y=&quot;528&quot; width=&quot;111.75&quot; height=&quot;34&quot; as=&quot;geometry&quot; /&gt;&#10;        &lt;/mxCell&gt;&#10;        &lt;mxCell id=&quot;xLu8JcWLOyS18Lkk3_GD-7&quot; value=&quot;Elastic Load Balancer (ELB)&quot; style=&quot;text;html=1;align=center;verticalAlign=middle;whiteSpace=wrap;rounded=0;&quot; vertex=&quot;1&quot; parent=&quot;1&quot;&gt;&#10;          &lt;mxGeometry x=&quot;438.25&quot; y=&quot;527&quot; width=&quot;170&quot; height=&quot;30&quot; as=&quot;geometry&quot; /&gt;&#10;        &lt;/mxCell&gt;&#10;        &lt;mxCell id=&quot;xLu8JcWLOyS18Lkk3_GD-8&quot; value=&quot;CloudFront (Redirector within AWS)&quot; style=&quot;text;html=1;align=center;verticalAlign=middle;whiteSpace=wrap;rounded=0;&quot; vertex=&quot;1&quot; parent=&quot;1&quot;&gt;&#10;          &lt;mxGeometry x=&quot;285&quot; y=&quot;527&quot; width=&quot;140&quot; height=&quot;30&quot; as=&quot;geometry&quot; /&gt;&#10;        &lt;/mxCell&gt;&#10;        &lt;mxCell id=&quot;xLu8JcWLOyS18Lkk3_GD-9&quot; value=&quot;Cloudflare Worker&quot; style=&quot;text;html=1;align=center;verticalAlign=middle;whiteSpace=wrap;rounded=0;&quot; vertex=&quot;1&quot; parent=&quot;1&quot;&gt;&#10;          &lt;mxGeometry x=&quot;115.00000000000003&quot; y=&quot;527&quot; width=&quot;140&quot; height=&quot;30&quot; as=&quot;geometry&quot; /&gt;&#10;        &lt;/mxCell&gt;&#10;        &lt;mxCell id=&quot;xLu8JcWLOyS18Lkk3_GD-10&quot; value=&quot;&quot; style=&quot;sketch=0;aspect=fixed;pointerEvents=1;shadow=0;dashed=0;html=1;strokeColor=none;labelPosition=center;verticalLabelPosition=bottom;verticalAlign=top;align=center;fillColor=#00188D;shape=mxgraph.azure.laptop&quot; vertex=&quot;1&quot; parent=&quot;1&quot;&gt;&#10;          &lt;mxGeometry x=&quot;135&quot; y=&quot;250&quot; width=&quot;50&quot; height=&quot;30&quot; as=&quot;geometry&quot; /&gt;&#10;        &lt;/mxCell&gt;&#10;        &lt;mxCell id=&quot;xLu8JcWLOyS18Lkk3_GD-11&quot; value=&quot;&quot; style=&quot;sketch=0;aspect=fixed;pointerEvents=1;shadow=0;dashed=0;html=1;strokeColor=none;labelPosition=center;verticalLabelPosition=bottom;verticalAlign=top;align=center;fillColor=#00188D;shape=mxgraph.azure.laptop&quot; vertex=&quot;1&quot; parent=&quot;1&quot;&gt;&#10;          &lt;mxGeometry x=&quot;165&quot; y=&quot;270&quot; width=&quot;50&quot; height=&quot;30&quot; as=&quot;geometry&quot; /&gt;&#10;        &lt;/mxCell&gt;&#10;        &lt;mxCell id=&quot;xLu8JcWLOyS18Lkk3_GD-12&quot; value=&quot;&quot; style=&quot;sketch=0;aspect=fixed;pointerEvents=1;shadow=0;dashed=0;html=1;strokeColor=none;labelPosition=center;verticalLabelPosition=bottom;verticalAlign=top;align=center;fillColor=#00188D;shape=mxgraph.azure.laptop&quot; vertex=&quot;1&quot; parent=&quot;1&quot;&gt;&#10;          &lt;mxGeometry x=&quot;195&quot; y=&quot;250&quot; width=&quot;50&quot; height=&quot;30&quot; as=&quot;geometry&quot; /&gt;&#10;        &lt;/mxCell&gt;&#10;        &lt;mxCell id=&quot;xLu8JcWLOyS18Lkk3_GD-13&quot; value=&quot;Victim(s) with active implants&quot; style=&quot;text;html=1;align=center;verticalAlign=middle;whiteSpace=wrap;rounded=0;&quot; vertex=&quot;1&quot; parent=&quot;1&quot;&gt;&#10;          &lt;mxGeometry x=&quot;120&quot; y=&quot;310&quot; width=&quot;140&quot; height=&quot;30&quot; as=&quot;geometry&quot; /&gt;&#10;        &lt;/mxCell&gt;&#10;        &lt;mxCell id=&quot;xLu8JcWLOyS18Lkk3_GD-22&quot; style=&quot;edgeStyle=orthogonalEdgeStyle;rounded=0;orthogonalLoop=1;jettySize=auto;html=1;exitX=0.55;exitY=0.95;exitDx=0;exitDy=0;exitPerimeter=0;startArrow=classic;startFill=1;flowAnimation=1;&quot; edge=&quot;1&quot; parent=&quot;1&quot; source=&quot;xLu8JcWLOyS18Lkk3_GD-19&quot; target=&quot;xLu8JcWLOyS18Lkk3_GD-1&quot;&gt;&#10;          &lt;mxGeometry relative=&quot;1&quot; as=&quot;geometry&quot;&gt;&#10;            &lt;mxPoint x=&quot;185&quot; y=&quot;460&quot; as=&quot;targetPoint&quot; /&gt;&#10;            &lt;mxPoint x=&quot;406&quot; y=&quot;420&quot; as=&quot;sourcePoint&quot; /&gt;&#10;            &lt;Array as=&quot;points&quot;&gt;&#10;              &lt;mxPoint x=&quot;406&quot; y=&quot;420&quot; /&gt;&#10;              &lt;mxPoint x=&quot;186&quot; y=&quot;420&quot; /&gt;&#10;            &lt;/Array&gt;&#10;          &lt;/mxGeometry&gt;&#10;        &lt;/mxCell&gt;&#10;        &lt;mxCell id=&quot;xLu8JcWLOyS18Lkk3_GD-19&quot; value=&quot;WAN&quot; style=&quot;ellipse;shape=cloud;whiteSpace=wrap;html=1;&quot; vertex=&quot;1&quot; parent=&quot;1&quot;&gt;&#10;          &lt;mxGeometry x=&quot;340&quot; y=&quot;305&quot; width=&quot;120&quot; height=&quot;80&quot; as=&quot;geometry&quot; /&gt;&#10;        &lt;/mxCell&gt;&#10;        &lt;mxCell id=&quot;xLu8JcWLOyS18Lkk3_GD-23&quot; value=&quot;&quot; style=&quot;endArrow=classic;startArrow=classic;html=1;rounded=0;exitX=1.059;exitY=0.671;exitDx=0;exitDy=0;exitPerimeter=0;flowAnimation=1;&quot; edge=&quot;1&quot; parent=&quot;1&quot; source=&quot;xLu8JcWLOyS18Lkk3_GD-12&quot; target=&quot;xLu8JcWLOyS18Lkk3_GD-19&quot;&gt;&#10;          &lt;mxGeometry width=&quot;50&quot; height=&quot;50&quot; relative=&quot;1&quot; as=&quot;geometry&quot;&gt;&#10;            &lt;mxPoint x=&quot;390&quot; y=&quot;400&quot; as=&quot;sourcePoint&quot; /&gt;&#10;            &lt;mxPoint x=&quot;440&quot; y=&quot;350&quot; as=&quot;targetPoint&quot; /&gt;&#10;          &lt;/mxGeometry&gt;&#10;        &lt;/mxCell&gt;&#10;        &lt;mxCell id=&quot;xLu8JcWLOyS18Lkk3_GD-26&quot; value=&quot;AWS VPC&quot; style=&quot;text;html=1;align=center;verticalAlign=middle;whiteSpace=wrap;rounded=0;fontSize=17;&quot; vertex=&quot;1&quot; parent=&quot;1&quot;&gt;&#10;          &lt;mxGeometry x=&quot;472.91&quot; y=&quot;400&quot; width=&quot;96.75&quot; height=&quot;40&quot; as=&quot;geometry&quot; /&gt;&#10;        &lt;/mxCell&gt;&#10;      &lt;/root&gt;&#10;    &lt;/mxGraphModel&gt;&#10;  &lt;/diagram&gt;&#10;&lt;/mxfile&gt;&#10;"><defs><style>@keyframes ge-flow-animation-_bNo2DMly8SSl9QildbC {&#xa;  to {&#xa;    stroke-dashoffset: 0;&#xa;  }&#xa;}</style></defs><rect fill="#ffffff" width="100%" height="100%" x="0" y="0" style="fill: var(--ge-dark-color, #121212);"/><g><g data-cell-id="0"><g data-cell-id="1"><g data-cell-id="xLu8JcWLOyS18Lkk3_GD-30"><g><rect x="0" y="0" width="730" height="410" fill="#ffffff" stroke="#000000" pointer-events="all" style="fill: rgb(48, 48, 48); stroke: rgb(255, 255, 255);"/></g></g><g data-cell-id="xLu8JcWLOyS18Lkk3_GD-25"><g><rect x="182.58" y="180" width="497.42" height="180" fill="#ffffff" stroke="#000000" stroke-dasharray="3 3" pointer-events="all" style="fill: var(--ge-dark-color, #121212); stroke: rgb(255, 255, 255);"/></g></g><g data-cell-id="xLu8JcWLOyS18Lkk3_GD-16"><g><path d="M 136.37 268.06 L 185.79 268.48 L 235.21 268.2" fill="none" stroke="#000000" stroke-miterlimit="10" pointer-events="stroke" stroke-dasharray="8" style="stroke: rgb(255, 255, 255); animation: 500ms linear 0s infinite normal none running ge-flow-animation-_bNo2DMly8SSl9QildbC; stroke-dashoffset: 16;"/><path d="M 131.12 268.01 L 138.15 264.57 L 136.37 268.06 L 138.09 271.57 Z" fill="#000000" stroke="#000000" stroke-miterlimit="10" pointer-events="all" style="fill: rgb(255, 255, 255); stroke: rgb(255, 255, 255);"/><path d="M 240.46 268.17 L 233.48 271.71 L 235.21 268.2 L 233.44 264.71 Z" fill="#000000" stroke="#000000" stroke-miterlimit="10" pointer-events="all" style="fill: rgb(255, 255, 255); stroke: rgb(255, 255, 255);"/></g></g><g data-cell-id="xLu8JcWLOyS18Lkk3_GD-1"><g><path d="M 65 303 L 65 240 L 125 240 L 125 303 Z" fill="#d9a741" stroke="none" pointer-events="all" style="fill: rgb(131, 88, 1);"/><path d="M 65 303 L 65 300.16 L 125 300.16 L 125 303 Z" fill-opacity="0.3" fill="#000000" stroke="none" pointer-events="all" style="fill: rgb(237, 237, 237);"/><rect x="65" y="240" width="0" height="0" fill="none" stroke="#000000" pointer-events="all" style="stroke: rgb(255, 255, 255);"/><path d="M 95.07 278.86 C 90.12 278.86 86.24 274.91 86.24 270.09 C 86.24 264.89 90.57 261.26 94.81 261.26 C 100.48 261.26 103.75 265.92 103.75 269.94 C 103.75 275.11 99.66 278.86 95.07 278.86 Z M 95.25 285.71 C 103.27 285.71 110.63 278.96 110.63 269.85 C 110.63 261.63 103.93 254.34 94.75 254.34 C 87.22 254.34 79.38 260.6 79.38 270.16 C 79.38 278.38 85.94 285.71 95.25 285.71 Z M 80.21 291.88 L 73.3 284.92 L 76.12 282.08 C 74.75 279.87 73.71 277.48 73.17 274.97 L 69.2 274.97 L 69.2 265.17 L 73.17 265.16 C 73.69 262.63 74.79 260.14 76.12 258.03 L 73.3 255.24 L 80.21 248.29 L 83.04 251.12 C 85.37 249.65 87.74 248.69 90.12 248.17 L 90.12 244.17 L 99.88 244.17 L 99.88 248.19 C 102.72 248.81 105.03 249.92 106.96 251.13 L 109.79 248.31 L 116.71 255.21 L 113.9 258.03 C 115.45 260.5 116.32 262.98 116.82 265.16 L 120.79 265.16 L 120.79 274.99 L 116.82 274.99 C 116.16 277.84 115.1 280.16 113.87 282.1 L 116.7 284.92 L 109.81 291.87 L 106.98 289.03 C 104.97 290.27 102.75 291.35 99.91 291.97 L 99.9 295.99 L 90.12 295.99 L 90.12 292 C 87.47 291.39 85.12 290.38 83.04 289.03 Z" fill="#ffffff" stroke="none" pointer-events="all" style="fill: rgb(18, 18, 18);"/></g></g><g data-cell-id="xLu8JcWLOyS18Lkk3_GD-17"><g><path d="M 308.95 268.5 L 351.71 268.48 L 394.47 268.2" fill="none" stroke="#000000" stroke-miterlimit="10" pointer-events="stroke" stroke-dasharray="8" style="stroke: rgb(255, 255, 255); animation: 500ms linear 0s infinite normal none running ge-flow-animation-_bNo2DMly8SSl9QildbC; stroke-dashoffset: 16;"/><path d="M 303.7 268.5 L 310.7 265 L 308.95 268.5 L 310.7 272 Z" fill="#000000" stroke="#000000" stroke-miterlimit="10" pointer-events="all" style="fill: rgb(255, 255, 255); stroke: rgb(255, 255, 255);"/><path d="M 399.72 268.17 L 392.75 271.71 L 394.47 268.2 L 392.7 264.71 Z" fill="#000000" stroke="#000000" stroke-miterlimit="10" pointer-events="all" style="fill: rgb(255, 255, 255); stroke: rgb(255, 255, 255);"/></g></g><g data-cell-id="xLu8JcWLOyS18Lkk3_GD-2"><g><path d="M 241.58 238 L 302.58 238 L 302.58 299 L 241.58 299 Z" fill="#8c4fff" stroke="none" pointer-events="all" style="fill: rgb(177, 125, 255);"/><path d="M 285.26 279.06 C 285.26 277.62 284.08 276.45 282.64 276.45 C 281.2 276.45 280.03 277.62 280.03 279.06 C 280.03 280.51 281.2 281.68 282.64 281.68 C 284.08 281.68 285.26 280.51 285.26 279.06 Z M 287 279.06 C 287 281.47 285.05 283.42 282.64 283.42 C 280.24 283.42 278.29 281.47 278.29 279.06 C 278.29 276.66 280.24 274.71 282.64 274.71 C 285.05 274.71 287 276.66 287 279.06 Z M 263.71 266.49 C 263.71 265.05 262.53 263.87 261.09 263.87 C 259.65 263.87 258.48 265.05 258.48 266.49 C 258.48 267.93 259.65 269.1 261.09 269.1 C 262.53 269.1 263.71 267.93 263.71 266.49 Z M 265.45 266.49 C 265.45 268.89 263.49 270.85 261.09 270.85 C 258.69 270.85 256.74 268.89 256.74 266.49 C 256.74 264.09 258.69 262.13 261.09 262.13 C 263.49 262.13 265.45 264.09 265.45 266.49 Z M 271.84 252.82 C 271.84 254.26 273.02 255.43 274.46 255.43 C 275.9 255.43 277.07 254.26 277.07 252.82 C 277.07 251.38 275.9 250.21 274.46 250.21 C 273.02 250.21 271.84 251.38 271.84 252.82 Z M 270.1 252.82 C 270.1 250.42 272.06 248.46 274.46 248.46 C 276.86 248.46 278.82 250.42 278.82 252.82 C 278.82 255.22 276.86 257.18 274.46 257.18 C 272.06 257.18 270.1 255.22 270.1 252.82 Z M 294.74 268.5 C 294.74 260.42 290.4 252.94 283.42 248.9 C 282.17 249.15 280.96 249.5 279.44 250.05 L 278.85 248.41 C 279.64 248.12 280.35 247.89 281.03 247.7 C 278.22 246.49 275.17 245.84 272.08 245.84 C 270.61 245.84 269.16 246 267.74 246.27 C 268.77 246.87 269.68 247.47 270.56 248.14 L 269.51 249.53 C 268.26 248.58 266.97 247.78 265.28 246.9 C 256.72 249.59 250.56 257.13 249.58 266 C 251.38 265.63 253.1 265.44 255.01 265.39 L 255.05 267.13 C 253.05 267.18 251.33 267.39 249.45 267.81 C 249.44 268.04 249.42 268.27 249.42 268.5 C 249.42 276.04 253.16 283 259.29 287.19 C 258.2 283.94 257.66 280.87 257.66 277.86 C 257.66 276.15 257.95 274.75 258.26 273.26 C 258.34 272.92 258.41 272.57 258.48 272.2 L 260.19 272.54 C 260.12 272.91 260.04 273.27 259.97 273.62 C 259.66 275.07 259.4 276.33 259.4 277.86 C 259.4 281.27 260.15 284.79 261.67 288.62 C 264.91 290.3 268.41 291.16 272.08 291.16 C 274.48 291.16 276.83 290.77 279.06 290.04 C 279.94 288.3 280.59 286.67 281.13 284.79 L 282.81 285.28 C 282.41 286.65 281.96 287.89 281.41 289.13 C 282.82 288.5 284.15 287.72 285.4 286.8 C 285.1 286.07 284.77 285.33 284.42 284.62 L 285.98 283.84 C 286.28 284.45 286.56 285.07 286.82 285.69 C 291.87 281.38 294.74 275.18 294.74 268.5 Z M 296.48 268.5 C 296.48 276.1 293.02 283.14 287 287.8 C 285.51 288.96 283.89 289.92 282.18 290.7 C 281.45 291.03 280.71 291.33 279.95 291.59 C 277.44 292.46 274.79 292.9 272.08 292.9 C 268.07 292.9 264.09 291.9 260.57 290.01 C 252.62 285.76 247.68 277.52 247.68 268.5 C 247.68 267.9 247.7 267.45 247.73 267.03 C 248.32 256.84 255.31 248.03 265.11 245.12 C 267.34 244.44 269.69 244.1 272.08 244.1 C 276.27 244.1 280.39 245.18 284 247.22 C 291.7 251.53 296.48 259.68 296.48 268.5 Z M 269.74 255.83 L 268.59 254.52 C 266.64 256.22 265.12 258.03 263.35 260.77 L 264.81 261.72 C 266.49 259.13 267.92 257.42 269.74 255.83 Z M 267.09 267.13 L 266.52 268.78 C 270.53 270.15 274.02 272.34 277.51 275.68 L 278.72 274.42 C 275.03 270.9 271.34 268.59 267.09 267.13 Z M 278.74 256.88 C 282.01 261.87 283.85 267.34 284.21 273.15 L 282.48 273.26 C 282.13 267.76 280.39 262.57 277.29 257.84 Z" fill="#ffffff" stroke="none" pointer-events="all" style="fill: rgb(18, 18, 18);"/></g></g><g data-cell-id="xLu8JcWLOyS18Lkk3_GD-4"><g><path d="M 603.24 307 L 596.92 303.83 L 596.92 298.96 L 591.35 301.03 L 586.54 298.6 L 586.54 295.11 L 582.17 296.36 L 578.27 294.39 L 578.27 291.82 L 574.74 292.62 L 571.58 291.02 L 571.58 245.99 L 574.74 244.39 L 578.27 245.19 L 578.27 242.62 L 582.17 240.65 L 586.54 241.89 L 586.54 238.41 L 591.35 235.98 L 596.92 238.04 L 596.92 233.18 L 603.24 230 L 634.92 245.98 L 634.92 291.02 Z" fill="#f58534" stroke="none" pointer-events="all" style="fill: rgb(189, 92, 23);"/><path d="M 574.74 292.62 L 571.58 291.02 L 571.58 245.99 L 574.74 244.39 Z M 582.17 296.36 L 578.27 294.39 L 578.27 242.62 L 582.17 240.65 Z M 591.35 301.03 L 586.54 298.6 L 586.54 238.41 L 591.35 235.98 Z M 596.92 303.83 L 596.92 233.18 L 603.24 230 L 603.24 307 Z" fill-opacity="0.3" fill="#000000" stroke="none" pointer-events="all" style="fill: rgb(237, 237, 237);"/></g></g><g data-cell-id="xLu8JcWLOyS18Lkk3_GD-18"><g><path d="M 471.29 267.99 L 558.63 267.99" fill="none" stroke="#000000" stroke-miterlimit="10" pointer-events="stroke" stroke-dasharray="8" style="stroke: rgb(255, 255, 255); animation: 500ms linear 0s infinite normal none running ge-flow-animation-_bNo2DMly8SSl9QildbC; stroke-dashoffset: 16;"/><path d="M 466.04 267.99 L 473.04 264.49 L 471.29 267.99 L 473.04 271.49 Z" fill="#000000" stroke="#000000" stroke-miterlimit="10" pointer-events="all" style="fill: rgb(255, 255, 255); stroke: rgb(255, 255, 255);"/><path d="M 563.88 267.99 L 556.88 271.49 L 558.63 267.99 L 556.88 264.49 Z" fill="#000000" stroke="#000000" stroke-miterlimit="10" pointer-events="all" style="fill: rgb(255, 255, 255); stroke: rgb(255, 255, 255);"/></g></g><g data-cell-id="xLu8JcWLOyS18Lkk3_GD-5"><g><path d="M 433.24 307 L 426.94 303.82 L 426.94 298.94 L 421.37 301.02 L 416.54 298.59 L 416.54 295.1 L 412.17 296.35 L 408.27 294.38 L 408.27 291.81 L 404.74 292.61 L 401.58 291.01 L 401.58 245.97 L 404.74 244.39 L 408.27 245.2 L 408.27 242.62 L 412.17 240.65 L 416.54 241.9 L 416.54 238.41 L 421.37 235.98 L 426.94 238.04 L 426.94 233.18 L 433.24 230 L 450.12 238.51 L 450.12 246.6 L 451.92 247.24 L 451.92 242.43 L 455.91 241.4 L 464.92 245.99 L 464.92 263.91 L 461.29 264.11 L 454.33 263.48 L 454.33 273.33 L 461.29 272.7 L 464.92 272.89 L 464.92 291.01 L 455.91 295.6 L 451.92 294.57 L 451.92 289.59 L 450.12 290.25 L 450.12 298.49 Z" fill="#f58534" stroke="none" pointer-events="all" style="fill: rgb(189, 92, 23);"/><path d="M 451.92 263.27 L 451.92 242.43 L 455.91 241.4 L 455.91 262.98 Z M 451.92 273.55 L 455.91 273.82 L 455.91 295.6 L 451.92 294.57 Z M 426.94 261.39 L 426.94 233.18 L 433.24 230 L 433.24 260.75 Z M 426.94 303.82 L 426.94 275.42 L 433.24 276.08 L 433.24 307 Z M 416.54 298.59 L 416.54 238.41 L 421.37 235.98 L 421.37 301.02 Z M 408.27 294.38 L 408.27 242.62 L 412.17 240.65 L 412.17 296.35 Z M 404.74 292.61 L 401.58 291.01 L 401.58 245.97 L 404.74 244.39 Z" fill-opacity="0.3" fill="#000000" stroke="none" pointer-events="all" style="fill: rgb(237, 237, 237);"/><path d="M 451.92 263.27 L 455.91 262.98 L 464.92 263.91 L 461.29 264.11 Z M 426.94 261.39 L 433.24 260.75 L 450.12 262.42 L 444.1 262.81 Z" fill-opacity="0.5" fill="#000000" stroke="none" pointer-events="all" style="fill: rgb(237, 237, 237);"/><path d="M 451.92 273.55 L 461.29 272.7 L 464.92 272.89 L 455.91 273.82 Z M 426.94 275.42 L 444.1 274.01 L 450.12 274.38 L 433.24 276.08 Z" fill-opacity="0.3" fill="#ffffff" stroke="none" pointer-events="all" style="fill: rgb(18, 18, 18);"/></g></g><g data-cell-id="xLu8JcWLOyS18Lkk3_GD-6"><g><rect x="547.37" y="308" width="111.75" height="34" fill="none" stroke="none" pointer-events="all"/></g><g><g><switch><foreignObject style="overflow: visible; text-align: left;" pointer-events="none" width="100%" height="100%" requiredFeatures="http://www.w3.org/TR/SVG11/feature#Extensibility"><div xmlns="http://www.w3.org/1999/xhtml" style="display: flex; align-items: unsafe center; justify-content: unsafe center; width: 110px; height: 1px; padding-top: 325px; margin-left: 548px;"><div style="box-sizing: border-box; font-size: 0; text-align: center; color: #000000; "><div style="display: inline-block; font-size: 12px; font-family: Helvetica; color: #ffffff; line-height: 1.2; pointer-events: all; white-space: normal; word-wrap: normal; ">EC2 instance (<span style="background-color: transparent; color: light-dark(rgb(0, 0, 0), rgb(255, 255, 255));">Mythic Server)</span></div></div></div></foreignObject><text x="603" y="329" fill="light-dark(#000000, #ffffff)" font-family="Helvetica" font-size="12px" text-anchor="middle">EC2 instance (Myth...</text></switch></g></g></g><g data-cell-id="xLu8JcWLOyS18Lkk3_GD-7"><g><rect x="348.25" y="307" width="170" height="30" fill="none" stroke="none" pointer-events="all"/></g><g><g><switch><foreignObject style="overflow: visible; text-align: left;" pointer-events="none" width="100%" height="100%" requiredFeatures="http://www.w3.org/TR/SVG11/feature#Extensibility"><div xmlns="http://www.w3.org/1999/xhtml" style="display: flex; align-items: unsafe center; justify-content: unsafe center; width: 168px; height: 1px; padding-top: 322px; margin-left: 349px;"><div style="box-sizing: border-box; font-size: 0; text-align: center; color: #000000; "><div style="display: inline-block; font-size: 12px; font-family: Helvetica; color: #ffffff; line-height: 1.2; pointer-events: all; white-space: normal; word-wrap: normal; ">Elastic Load Balancer (ELB)</div></div></div></foreignObject><text x="433" y="326" fill="light-dark(#000000, #ffffff)" font-family="Helvetica" font-size="12px" text-anchor="middle">Elastic Load Balancer (ELB)</text></switch></g></g></g><g data-cell-id="xLu8JcWLOyS18Lkk3_GD-8"><g><rect x="195" y="307" width="140" height="30" fill="none" stroke="none" pointer-events="all"/></g><g><g><switch><foreignObject style="overflow: visible; text-align: left;" pointer-events="none" width="100%" height="100%" requiredFeatures="http://www.w3.org/TR/SVG11/feature#Extensibility"><div xmlns="http://www.w3.org/1999/xhtml" style="display: flex; align-items: unsafe center; justify-content: unsafe center; width: 138px; height: 1px; padding-top: 322px; margin-left: 196px;"><div style="box-sizing: border-box; font-size: 0; text-align: center; color: #000000; "><div style="display: inline-block; font-size: 12px; font-family: Helvetica; color: #ffffff; line-height: 1.2; pointer-events: all; white-space: normal; word-wrap: normal; ">CloudFront (Redirector within AWS)</div></div></div></foreignObject><text x="265" y="326" fill="light-dark(#000000, #ffffff)" font-family="Helvetica" font-size="12px" text-anchor="middle">CloudFront (Redirector...</text></switch></g></g></g><g data-cell-id="xLu8JcWLOyS18Lkk3_GD-9"><g><rect x="25" y="307" width="140" height="30" fill="none" stroke="none" pointer-events="all"/></g><g><g><switch><foreignObject style="overflow: visible; text-align: left;" pointer-events="none" width="100%" height="100%" requiredFeatures="http://www.w3.org/TR/SVG11/feature#Extensibility"><div xmlns="http://www.w3.org/1999/xhtml" style="display: flex; align-items: unsafe center; justify-content: unsafe center; width: 138px; height: 1px; padding-top: 322px; margin-left: 26px;"><div style="box-sizing: border-box; font-size: 0; text-align: center; color: #000000; "><div style="display: inline-block; font-size: 12px; font-family: Helvetica; color: #ffffff; line-height: 1.2; pointer-events: all; white-space: normal; word-wrap: normal; ">Cloudflare Worker</div></div></div></foreignObject><text x="95" y="326" fill="light-dark(#000000, #ffffff)" font-family="Helvetica" font-size="12px" text-anchor="middle">Cloudflare Worker</text></switch></g></g></g><g data-cell-id="xLu8JcWLOyS18Lkk3_GD-10"><g><rect x="45" y="30" width="50" height="30" fill="none" stroke="none" pointer-events="all"/><path d="M 49.24 53.27 L 49.24 31.35 C 49.55 30.62 50.21 30.11 50.99 30 L 88.86 30 C 89.82 30.11 90.6 30.81 90.81 31.74 L 90.81 53.27 L 94.82 57.61 C 95 58.15 94.83 58.71 94.35 59.16 C 93.88 59.62 93.14 59.92 92.32 60 L 47.73 60 C 46.9 59.93 46.15 59.63 45.66 59.18 C 45.18 58.72 45 58.15 45.18 57.61 Z M 50.89 53.27 L 89.31 53.32 L 89.31 32.19 C 89.13 31.66 88.66 31.28 88.1 31.2 L 51.9 31.2 C 51.35 31.38 50.96 31.87 50.89 32.44 Z M 66.14 56.21 L 64.78 58.16 L 74.21 58.16 L 73.16 56.21 Z" fill="#00188d" stroke="none" pointer-events="all" style="fill: rgb(191, 211, 255);"/></g></g><g data-cell-id="xLu8JcWLOyS18Lkk3_GD-11"><g><rect x="75" y="50" width="50" height="30" fill="none" stroke="none" pointer-events="all"/><path d="M 79.24 73.27 L 79.24 51.35 C 79.55 50.62 80.21 50.11 80.99 50 L 118.86 50 C 119.82 50.11 120.6 50.81 120.81 51.74 L 120.81 73.27 L 124.82 77.61 C 125 78.15 124.83 78.71 124.35 79.16 C 123.88 79.62 123.14 79.92 122.32 80 L 77.73 80 C 76.9 79.93 76.15 79.63 75.66 79.18 C 75.18 78.72 75 78.15 75.18 77.61 Z M 80.89 73.27 L 119.31 73.32 L 119.31 52.19 C 119.13 51.66 118.66 51.28 118.1 51.2 L 81.9 51.2 C 81.35 51.38 80.96 51.87 80.89 52.44 Z M 96.14 76.21 L 94.78 78.16 L 104.21 78.16 L 103.16 76.21 Z" fill="#00188d" stroke="none" pointer-events="all" style="fill: rgb(191, 211, 255);"/></g></g><g data-cell-id="xLu8JcWLOyS18Lkk3_GD-12"><g><rect x="105" y="30" width="50" height="30" fill="none" stroke="none" pointer-events="all"/><path d="M 109.24 53.27 L 109.24 31.35 C 109.55 30.62 110.21 30.11 110.99 30 L 148.86 30 C 149.82 30.11 150.6 30.81 150.81 31.74 L 150.81 53.27 L 154.82 57.61 C 155 58.15 154.83 58.71 154.35 59.16 C 153.88 59.62 153.14 59.92 152.32 60 L 107.73 60 C 106.9 59.93 106.15 59.63 105.66 59.18 C 105.18 58.72 105 58.15 105.18 57.61 Z M 110.89 53.27 L 149.31 53.32 L 149.31 32.19 C 149.13 31.66 148.66 31.28 148.1 31.2 L 111.9 31.2 C 111.35 31.38 110.96 31.87 110.89 32.44 Z M 126.14 56.21 L 124.78 58.16 L 134.21 58.16 L 133.16 56.21 Z" fill="#00188d" stroke="none" pointer-events="all" style="fill: rgb(191, 211, 255);"/></g></g><g data-cell-id="xLu8JcWLOyS18Lkk3_GD-13"><g><rect x="30" y="90" width="140" height="30" fill="none" stroke="none" pointer-events="all"/></g><g><g><switch><foreignObject style="overflow: visible; text-align: left;" pointer-events="none" width="100%" height="100%" requiredFeatures="http://www.w3.org/TR/SVG11/feature#Extensibility"><div xmlns="http://www.w3.org/1999/xhtml" style="display: flex; align-items: unsafe center; justify-content: unsafe center; width: 138px; height: 1px; padding-top: 105px; margin-left: 31px;"><div style="box-sizing: border-box; font-size: 0; text-align: center; color: #000000; "><div style="display: inline-block; font-size: 12px; font-family: Helvetica; color: #ffffff; line-height: 1.2; pointer-events: all; white-space: normal; word-wrap: normal; ">Victim(s) with active implants</div></div></div></foreignObject><text x="100" y="109" fill="light-dark(#000000, #ffffff)" font-family="Helvetica" font-size="12px" text-anchor="middle">Victim(s) with active i...</text></switch></g></g></g><g data-cell-id="xLu8JcWLOyS18Lkk3_GD-22"><g><path d="M 316 167.37 L 316 200 L 96 200 L 96 233.63" fill="none" stroke="#000000" stroke-miterlimit="10" pointer-events="stroke" stroke-dasharray="8" style="stroke: rgb(255, 255, 255); animation: 500ms linear 0s infinite normal none running ge-flow-animation-_bNo2DMly8SSl9QildbC; stroke-dashoffset: 16;"/><path d="M 316 162.12 L 319.5 169.12 L 316 167.37 L 312.5 169.12 Z" fill="#000000" stroke="#000000" stroke-miterlimit="10" pointer-events="all" style="fill: rgb(255, 255, 255); stroke: rgb(255, 255, 255);"/><path d="M 96 238.88 L 92.5 231.88 L 96 233.63 L 99.5 231.88 Z" fill="#000000" stroke="#000000" stroke-miterlimit="10" pointer-events="all" style="fill: rgb(255, 255, 255); stroke: rgb(255, 255, 255);"/></g></g><g data-cell-id="xLu8JcWLOyS18Lkk3_GD-19"><g><path d="M 280 105 C 256 105 250 125 269.2 129 C 250 137.8 271.6 157 287.2 149 C 298 165 334 165 346 149 C 370 149 370 133 355 125 C 370 109 346 93 325 101 C 310 89 286 89 280 105 Z" fill="#ffffff" stroke="#000000" stroke-miterlimit="10" pointer-events="all" style="fill: var(--ge-dark-color, #121212); stroke: rgb(255, 255, 255);"/></g><g><g><switch><foreignObject style="overflow: visible; text-align: left;" pointer-events="none" width="100%" height="100%" requiredFeatures="http://www.w3.org/TR/SVG11/feature#Extensibility"><div xmlns="http://www.w3.org/1999/xhtml" style="display: flex; align-items: unsafe center; justify-content: unsafe center; width: 118px; height: 1px; padding-top: 125px; margin-left: 251px;"><div style="box-sizing: border-box; font-size: 0; text-align: center; color: #000000; "><div style="display: inline-block; font-size: 12px; font-family: Helvetica; color: #ffffff; line-height: 1.2; pointer-events: all; white-space: normal; word-wrap: normal; ">WAN</div></div></div></foreignObject><text x="310" y="129" fill="light-dark(#000000, #ffffff)" font-family="Helvetica" font-size="12px" text-anchor="middle">WAN</text></switch></g></g></g><g data-cell-id="xLu8JcWLOyS18Lkk3_GD-23"><g><path d="M 163.66 52.95 L 255.97 98.47" fill="none" stroke="#000000" stroke-miterlimit="10" pointer-events="stroke" stroke-dasharray="8" style="stroke: rgb(255, 255, 255); animation: 500ms linear 0s infinite normal none running ge-flow-animation-_bNo2DMly8SSl9QildbC; stroke-dashoffset: 16;"/><path d="M 158.95 50.62 L 166.78 50.58 L 163.66 52.95 L 163.68 56.86 Z" fill="#000000" stroke="#000000" stroke-miterlimit="10" pointer-events="all" style="fill: rgb(255, 255, 255); stroke: rgb(255, 255, 255);"/><path d="M 260.68 100.79 L 252.86 100.83 L 255.97 98.47 L 255.95 94.55 Z" fill="#000000" stroke="#000000" stroke-miterlimit="10" pointer-events="all" style="fill: rgb(255, 255, 255); stroke: rgb(255, 255, 255);"/></g></g><g data-cell-id="xLu8JcWLOyS18Lkk3_GD-26"><g><rect x="382.91" y="180" width="96.75" height="40" fill="none" stroke="none" pointer-events="all"/></g><g><g><switch><foreignObject style="overflow: visible; text-align: left;" pointer-events="none" width="100%" height="100%" requiredFeatures="http://www.w3.org/TR/SVG11/feature#Extensibility"><div xmlns="http://www.w3.org/1999/xhtml" style="display: flex; align-items: unsafe center; justify-content: unsafe center; width: 95px; height: 1px; padding-top: 200px; margin-left: 384px;"><div style="box-sizing: border-box; font-size: 0; text-align: center; color: #000000; "><div style="display: inline-block; font-size: 17px; font-family: Helvetica; color: #ffffff; line-height: 1.2; pointer-events: all; white-space: normal; word-wrap: normal; ">AWS VPC</div></div></div></foreignObject><text x="431" y="205" fill="light-dark(#000000, #ffffff)" font-family="Helvetica" font-size="17px" text-anchor="middle">AWS VPC</text></switch></g></g></g></g></g></g></svg>